<svg width="49" height="48" viewBox="0 0 49 48" fill="none" xmlns="http://www.w3.org/2000/svg">
<g clip-path="url(#clip0_247_487)">
<path d="M12.3402 6.32994L6.3405 12.2837C6.20114 12.422 6.0357 12.5317 5.85362 12.6065C5.67154 12.6814 5.47639 12.7199 5.27931 12.7199C5.08223 12.7199 4.88708 12.6814 4.705 12.6065C4.52292 12.5317 4.35748 12.422 4.21812 12.2837C3.93668 12.0044 3.77856 11.6256 3.77856 11.2306C3.77856 10.8357 3.93668 10.4569 4.21812 10.1776L10.2178 4.22379C10.3571 4.0855 10.5226 3.9758 10.7047 3.90096C10.8867 3.82612 11.0819 3.7876 11.279 3.7876C11.476 3.7876 11.6712 3.82612 11.8533 3.90096C12.0354 3.9758 12.2008 4.0855 12.3402 4.22379C12.4795 4.36209 12.5901 4.52626 12.6655 4.70695C12.7409 4.88763 12.7797 5.08129 12.7797 5.27687C12.7797 5.47244 12.7409 5.6661 12.6655 5.84679C12.5901 6.02747 12.4795 6.19165 12.3402 6.32994ZM45.3383 10.1776L39.3386 4.22379C39.0572 3.9445 38.6754 3.7876 38.2774 3.7876C37.8794 3.7876 37.4977 3.9445 37.2162 4.22379C36.9348 4.50309 36.7767 4.88189 36.7767 5.27687C36.7767 5.67185 36.9348 6.05065 37.2162 6.32994L43.2159 12.2837C43.3552 12.422 43.5207 12.5317 43.7028 12.6065C43.8848 12.6814 44.08 12.7199 44.2771 12.7199C44.4742 12.7199 44.6693 12.6814 44.8514 12.6065C45.0335 12.5317 45.1989 12.422 45.3383 12.2837C45.4776 12.1454 45.5882 11.9812 45.6636 11.8006C45.739 11.6199 45.7778 11.4262 45.7778 11.2306C45.7778 11.0351 45.739 10.8414 45.6636 10.6607C45.5882 10.48 45.4776 10.3159 45.3383 10.1776ZM42.7772 24.6266C42.7772 28.1592 41.7215 31.6125 39.7438 34.5498C37.766 37.4871 34.955 39.7764 31.6661 41.1283C28.3772 42.4802 24.7582 42.8339 21.2668 42.1447C17.7753 41.4555 14.5682 39.7544 12.051 37.2564C9.5338 34.7585 7.81956 31.5759 7.12507 28.1112C6.43058 24.6464 6.78702 21.0551 8.14932 17.7914C9.51161 14.5277 11.8186 11.7381 14.7785 9.77548C17.7384 7.81285 21.2183 6.76531 24.7782 6.76531C29.5501 6.77072 34.1251 8.65427 37.4994 12.0027C40.8736 15.3512 42.7717 19.8912 42.7772 24.6266ZM36.7775 24.6266C36.7775 24.2318 36.6195 23.8533 36.3382 23.5741C36.0569 23.295 35.6754 23.1382 35.2776 23.1382H26.2781V14.2075C26.2781 13.8128 26.1201 13.4342 25.8388 13.155C25.5575 12.8759 25.176 12.7191 24.7782 12.7191C24.3804 12.7191 23.9989 12.8759 23.7176 13.155C23.4363 13.4342 23.2783 13.8128 23.2783 14.2075V24.6266C23.2783 25.0214 23.4363 25.4 23.7176 25.6791C23.9989 25.9582 24.3804 26.115 24.7782 26.115H35.2776C35.6754 26.115 36.0569 25.9582 36.3382 25.6791C36.6195 25.4 36.7775 25.0214 36.7775 24.6266Z" fill="black"/>
</g>
<defs>
<clipPath id="clip0_247_487">
<rect width="47.6242" height="46.9664" fill="white" transform="translate(0.778809 0.781738)"/>
</clipPath>
</defs>
</svg>
