<svg width="59" height="56" viewBox="0 0 59 56" fill="none" xmlns="http://www.w3.org/2000/svg">
<path d="M58.1517 38.6038C58.1517 39.1007 57.9606 39.5772 57.6205 39.9286C57.2805 40.28 56.8192 40.4774 56.3382 40.4774H52.7113V44.2246C52.7113 44.7215 52.5202 45.1981 52.1801 45.5494C51.84 45.9008 51.3788 46.0982 50.8978 46.0982C50.4168 46.0982 49.9556 45.9008 49.6155 45.5494C49.2754 45.1981 49.0843 44.7215 49.0843 44.2246V40.4774H45.4574C44.9764 40.4774 44.5152 40.28 44.1751 39.9286C43.835 39.5772 43.6439 39.1007 43.6439 38.6038C43.6439 38.1069 43.835 37.6303 44.1751 37.2789C44.5152 36.9276 44.9764 36.7302 45.4574 36.7302H49.0843V32.983C49.0843 32.486 49.2754 32.0095 49.6155 31.6581C49.9556 31.3068 50.4168 31.1094 50.8978 31.1094C51.3788 31.1094 51.84 31.3068 52.1801 31.6581C52.5202 32.0095 52.7113 32.486 52.7113 32.983V36.7302H56.3382C56.8192 36.7302 57.2805 36.9276 57.6205 37.2789C57.9606 37.6303 58.1517 38.1069 58.1517 38.6038ZM32.7631 43.6812C35.6059 41.8519 37.7948 39.1158 38.9984 35.8868C40.2021 32.6577 40.3551 29.1116 39.4343 25.7847C38.5135 22.4578 36.569 19.5313 33.895 17.4479C31.221 15.3645 27.963 14.2375 24.6138 14.2375C21.2647 14.2375 18.0066 15.3645 15.3326 17.4479C12.6586 19.5313 10.7141 22.4578 9.79332 25.7847C8.87253 29.1116 9.02554 32.6577 10.2292 35.8868C11.4329 39.1158 13.6217 41.8519 16.4645 43.6812C11.7835 45.2644 7.57171 48.2224 4.18505 52.3865C3.96333 52.6588 3.82124 52.9906 3.77541 53.3433C3.72957 53.696 3.78189 54.0548 3.92623 54.3779C4.07057 54.7009 4.30097 54.9749 4.59047 55.1676C4.87998 55.3603 5.21662 55.4639 5.56102 55.4662H43.6439C43.9895 55.4666 44.3279 55.3649 44.6195 55.1732C44.911 54.9816 45.1434 54.7078 45.2894 54.3842C45.4354 54.0606 45.4889 53.7007 45.4436 53.3468C45.3982 52.9929 45.256 52.6597 45.0335 52.3865C41.6446 48.2224 37.4328 45.2644 32.7631 43.6812Z" fill="black"/>
</svg>
