<svg width="40" height="37" viewBox="0 0 40 37" fill="none" xmlns="http://www.w3.org/2000/svg">
<path d="M39.2949 18.5718C39.2888 23.0926 37.544 27.4552 34.3894 30.8379C31.2347 34.2206 26.8878 36.3899 22.1675 36.9372C22.0624 36.9485 21.9559 36.9385 21.8552 36.9079C21.7545 36.8772 21.6617 36.8266 21.583 36.7594C21.5044 36.6922 21.4416 36.6098 21.3988 36.5179C21.3561 36.4259 21.3343 36.3263 21.335 36.2258V22.8403H25.8249C26.0301 22.8408 26.2332 22.8011 26.4216 22.7238C26.6099 22.6464 26.7796 22.5331 26.9199 22.3908C27.0603 22.2486 27.1684 22.0804 27.2375 21.8967C27.3066 21.7131 27.3352 21.5179 27.3216 21.3232C27.2885 20.9574 27.111 20.6169 26.8247 20.3705C26.5383 20.124 26.1644 19.9897 25.7782 19.9947H21.335V15.7261C21.335 14.9714 21.6503 14.2476 22.2117 13.7139C22.7731 13.1802 23.5344 12.8804 24.3283 12.8804H27.3216C27.5268 12.8808 27.7299 12.8412 27.9182 12.7638C28.1066 12.6865 28.2762 12.5732 28.4166 12.4309C28.5569 12.2887 28.665 12.1205 28.7341 11.9368C28.8032 11.7531 28.8319 11.5579 28.8183 11.3633C28.7852 10.9968 28.6071 10.6559 28.3199 10.4093C28.0328 10.1627 27.658 10.0289 27.2711 10.0347H24.3283C22.7405 10.0347 21.2178 10.6344 20.0951 11.7017C18.9724 12.769 18.3417 14.2167 18.3417 15.7261V19.9947H13.8517C13.6465 19.9942 13.4434 20.0339 13.2551 20.1112C13.0667 20.1886 12.8971 20.3019 12.7567 20.4441C12.6164 20.5864 12.5083 20.7546 12.4392 20.9383C12.3701 21.1219 12.3414 21.3171 12.355 21.5118C12.3881 21.8783 12.5662 22.2192 12.8533 22.4658C13.1405 22.7123 13.5153 22.8462 13.9022 22.8403H18.3417V36.2293C18.3423 36.3297 18.3206 36.4291 18.2779 36.5209C18.2353 36.6128 18.1727 36.695 18.0942 36.7622C18.0158 36.8294 17.9232 36.8801 17.8227 36.9108C17.7222 36.9416 17.616 36.9518 17.511 36.9408C12.6644 36.3796 8.21594 34.1091 5.04623 30.5786C1.87651 27.0481 0.216527 22.5149 0.394847 17.8764C0.769011 8.27218 8.95199 0.46431 19.0619 0.0908125C21.6794 -0.00557457 24.2904 0.400906 26.7388 1.28594C29.1872 2.17098 31.4227 3.51638 33.3115 5.24169C35.2004 6.96699 36.7038 9.03675 37.7319 11.3272C38.76 13.6176 39.2916 16.0816 39.2949 18.5718Z" fill="white"/>
</svg>
