<svg width="40" height="37" viewBox="0 0 40 37" fill="none" xmlns="http://www.w3.org/2000/svg">
<path d="M19.6582 27.519H19.6587C22.1635 27.5166 24.5701 26.573 26.3491 24.8875C28.129 23.2011 29.1355 20.9087 29.1381 18.5116V18.511C29.1381 16.7232 28.5784 14.9779 27.5333 13.496C26.4885 12.0145 25.0064 10.8637 23.2773 10.1852C21.5484 9.50667 19.6474 9.32951 17.8137 9.6751C15.9799 10.0207 14.2919 10.8744 12.9645 12.132C11.6369 13.3898 10.7294 14.9958 10.3615 16.7484C9.99346 18.5013 10.1826 20.3179 10.9037 21.9672C11.6246 23.6161 12.8434 25.0211 14.4018 26.0076C15.9599 26.994 17.789 27.519 19.6582 27.519ZM10.6785 0.576935H28.6379C31.2914 0.57969 33.8304 1.57989 35.699 3.35027C37.5667 5.11986 38.6119 7.51323 38.6147 10.0035V27.0185C38.6119 29.5088 37.5667 31.9021 35.699 33.6717C33.8304 35.4422 31.2913 36.4424 28.6376 36.4451H10.6788C8.0251 36.4424 5.486 35.4422 3.61735 33.6717C1.74969 31.9022 0.704552 29.509 0.70166 27.0188V10.0032C0.704552 7.51305 1.74969 5.11979 3.61735 3.35027C5.48594 1.57989 8.02493 0.57969 10.6785 0.576935ZM28.3509 8.89022L28.809 8.68993L28.3509 8.89022C28.562 9.37319 28.9176 9.78158 29.3684 10.067C29.819 10.3522 30.346 10.503 30.8831 10.503C31.6027 10.503 32.2978 10.2324 32.8144 9.74295C33.3319 9.25263 33.6281 8.58167 33.6281 7.87596C33.6281 7.35019 33.4634 6.83863 33.1583 6.40609C32.8536 5.97393 32.4233 5.64102 31.9249 5.44542C31.4266 5.24989 30.8798 5.1991 30.3525 5.29847C29.8251 5.39786 29.3372 5.64378 28.9518 6.00898C28.566 6.37445 28.3 6.84345 28.1919 7.35827C28.0838 7.87333 28.1396 8.40689 28.3509 8.89022ZM25.1448 18.511C25.1448 19.5277 24.8267 20.524 24.2273 21.374C23.6275 22.2244 22.7722 22.8911 21.7665 23.2858C20.7606 23.6806 19.6523 23.7842 18.5829 23.5827C17.5135 23.3811 16.5346 22.8843 15.7689 22.1588C15.0034 21.4335 14.4855 20.5129 14.2759 19.5148C14.0664 18.517 14.1737 17.4825 14.5854 16.5407C14.9973 15.5986 15.6968 14.7889 16.5996 14.2174C17.5028 13.6456 18.5672 13.339 19.6582 13.339C21.1218 13.339 22.5203 13.8901 23.5475 14.8632C24.5737 15.8355 25.1448 17.1483 25.1448 18.511Z" fill="white" stroke="#F6E7E7"/>
</svg>
