<svg width="59" height="51" viewBox="0 0 59 51" fill="none" xmlns="http://www.w3.org/2000/svg">
<path d="M31.1813 8.82642C31.2896 7.20368 31.7847 5.63906 32.6184 4.28527C33.4521 2.93148 34.5959 1.83478 35.9382 1.10224C37.2804 0.369698 38.7752 0.0263382 40.2766 0.10568C41.778 0.185021 43.2348 0.684352 44.5047 1.55493C44.6498 1.65775 44.7668 1.80099 44.8431 1.96961C44.9195 2.13822 44.9525 2.32599 44.9387 2.51318C44.9248 2.70037 44.8647 2.88007 44.7645 3.0334C44.6643 3.18674 44.5279 3.30804 44.3694 3.38456C42.1619 4.45952 40.288 6.2014 38.9728 8.40097C37.6577 10.6005 36.9572 13.1643 36.9555 15.7842C36.9555 16.0901 36.9555 16.3959 36.9845 16.6965C36.9978 16.8864 36.9629 17.0768 36.8835 17.2468C36.8042 17.4169 36.6834 17.5603 36.5342 17.6614C36.385 17.7626 36.2131 17.8178 36.0371 17.8209C35.8611 17.824 35.6876 17.775 35.5355 17.6792C34.1123 16.7981 32.9483 15.4994 32.1778 13.933C31.4074 12.3666 31.0619 10.5963 31.1813 8.82642ZM58.2072 35.8083C58.2106 37.0031 57.9048 38.1751 57.3243 39.1914C56.7438 40.2078 55.9119 41.0278 54.9228 41.5586L54.8166 41.6108L45.4393 45.934C45.3466 45.9782 45.2504 46.0132 45.1519 46.0385L29.6961 50.2206C29.543 50.2632 29.3857 50.2851 29.2276 50.2859H4.11199C3.08721 50.2859 2.1044 49.8453 1.37977 49.061C0.65514 48.2767 0.248047 47.213 0.248047 46.1039V35.6488C0.248047 34.5397 0.65514 33.476 1.37977 32.6917C2.1044 31.9074 3.08721 31.4668 4.11199 31.4668H11.0405L16.5032 25.5519C17.2195 24.7732 18.0712 24.1558 19.0092 23.7354C19.9473 23.315 20.953 23.1 21.9682 23.1028H34.0575C35.078 23.1027 36.0853 23.3525 37.0039 23.8337C37.9225 24.3148 38.7285 25.0148 39.3616 25.881C39.9947 26.7473 40.4384 27.7574 40.6595 28.8357C40.8806 29.9139 40.8734 31.0324 40.6383 32.1072L50.7425 29.5928C51.6221 29.3406 52.5435 29.3105 53.4356 29.5047C54.3277 29.6988 55.1667 30.1121 55.8879 30.7126C56.6091 31.3131 57.1933 32.0849 57.5954 32.9683C57.9975 33.8518 58.2068 34.8234 58.2072 35.8083ZM54.3432 35.8083C54.3429 35.4625 54.269 35.1215 54.1273 34.8117C53.9855 34.5019 53.7797 34.2316 53.5258 34.0218C53.2719 33.8119 52.9768 33.6682 52.6633 33.6018C52.3498 33.5354 52.0264 33.5481 51.7182 33.6389L51.6433 33.6598L35.463 37.6876C35.3211 37.7219 35.1762 37.7394 35.0308 37.7398H27.2956C26.7832 37.7398 26.2918 37.5195 25.9295 37.1274C25.5672 36.7353 25.3637 36.2034 25.3637 35.6488C25.3637 35.0943 25.5672 34.5624 25.9295 34.1703C26.2918 33.7781 26.7832 33.5578 27.2956 33.5578H34.0575C34.8261 33.5578 35.5632 33.2274 36.1067 32.6392C36.6502 32.051 36.9555 31.2532 36.9555 30.4213C36.9555 29.5895 36.6502 28.7917 36.1067 28.2035C35.5632 27.6153 34.8261 27.2848 34.0575 27.2848H21.9682C21.4606 27.283 20.9578 27.3905 20.4889 27.601C20.02 27.8114 19.5944 28.1206 19.2369 28.5107L13.7718 34.423V46.1039H28.9861L44.0627 42.0238L53.2396 37.7947C53.5736 37.6043 53.8531 37.3184 54.0476 36.9683C54.2422 36.6181 54.3444 36.2169 54.3432 35.8083ZM40.8194 15.7842C40.8194 17.6453 41.3293 19.4645 42.2846 21.0119C43.2399 22.5593 44.5977 23.7653 46.1863 24.4775C47.7749 25.1897 49.5229 25.3761 51.2094 25.013C52.8958 24.6499 54.4449 23.7537 55.6608 22.4378C56.8766 21.1218 57.7047 19.4452 58.0401 17.62C58.3756 15.7947 58.2034 13.9027 57.5454 12.1834C56.8874 10.464 55.773 8.99443 54.3433 7.9605C52.9136 6.92657 51.2328 6.37471 49.5133 6.37471C47.2075 6.37471 44.9962 7.36607 43.3658 9.1307C41.7354 10.8953 40.8194 13.2887 40.8194 15.7842Z" fill="black"/>
</svg>
